<?xml version="1.0" encoding="UTF-8"?><svg id="Layer_2" xmlns="http://www.w3.org/2000/svg" viewBox="0 0 139.67 90.46"><defs><style>.cls-1,.cls-2,.cls-3,.cls-4,.cls-5{fill:none;}.cls-1,.cls-2,.cls-3,.cls-4,.cls-5,.cls-6,.cls-7{stroke-miterlimit:10;}.cls-1,.cls-3,.cls-5,.cls-7{stroke:#231f20;}.cls-2{stroke:#00aeef;}.cls-3{stroke-dasharray:3.04 3.04;}.cls-8,.cls-9,.cls-10,.cls-11,.cls-12,.cls-6,.cls-7{fill:#231f20;}.cls-9{font-family:Symbol, Symbol;}.cls-9,.cls-10,.cls-11,.cls-12{font-size:11px;}.cls-10{letter-spacing:-.04em;}.cls-10,.cls-11,.cls-12{font-family:TimesNewRomanPSMT, 'Times New Roman';}.cls-4{stroke:#ed1c24;}.cls-13{fill:#ed1c24;}.cls-14{fill:#00aeef;}.cls-5{stroke-width:.75px;}.cls-12{letter-spacing:0em;}.cls-6{stroke:#939598;}</style></defs><g id="Layer_1-2"><line class="cls-6" x1="68.78" y1="90.31" x2="68.78" y2="2.75"/><line class="cls-6" x1="31.04" y1="15" x2="106.51" y2="15"/><line class="cls-7" x1="68.19" y1="15" x2="118.23" y2="61.24"/><circle class="cls-7" cx="118.23" cy="61.24" r="2.17"/><path class="cls-1" d="M136.06,14.68c0,.5,0,1-.02,1.5"/><path class="cls-3" d="M135.91,19.22c-2.34,35.32-31.72,63.24-67.63,63.24S2.14,53.73.57,17.69"/><path class="cls-1" d="M.52,16.18c-.01-.5-.02-1-.02-1.5"/><text class="cls-10" transform="translate(87.71 32.1)"><tspan x="0" y="0">L</tspan></text><text class="cls-11" transform="translate(108.14 20.87)"><tspan x="0" y="0">x</tspan></text><text class="cls-11" transform="translate(60.35 9.14)"><tspan x="0" y="0">y</tspan></text><text class="cls-11" transform="translate(123.93 65.12)"><tspan x="0" y="0">m</tspan></text><line class="cls-4" x1="118.23" y1="61.24" x2="118.23" y2="83.28"/><polygon class="cls-13" points="118.23 88.93 114.98 80.97 118.23 82.86 121.48 80.97 118.23 88.93"/><text class="cls-11" transform="translate(121.95 87.09)"><tspan x="0" y="0">-mg</tspan></text><line class="cls-8" x1="118.23" y1="61.24" x2="94.2" y2="39.04"/><line class="cls-2" x1="118.23" y1="61.24" x2="98.35" y2="42.87"/><polygon class="cls-14" points="94.2 39.04 102.26 42.05 98.66 43.16 97.84 46.83 94.2 39.04"/><text class="cls-11" transform="translate(103.83 44.32)"><tspan x="0" y="0">F</tspan></text><text class="cls-12" transform="translate(109.95 47.98) scale(.58)"><tspan x="0" y="0">t</tspan></text><text class="cls-9" transform="translate(70.88 31.44)"><tspan x="0" y="0">q</tspan></text><path class="cls-5" d="M72.99,18.93c0,2.17-1.89,3.92-4.21,3.92"/></g></svg>