<?xml version="1.0" encoding="UTF-8"?><svg id="Layer_2" xmlns="http://www.w3.org/2000/svg" viewBox="0 0 188.14 140.21"><defs><style>.cls-1,.cls-2,.cls-3,.cls-4{fill:#231f20;}.cls-2{font-family:Symbol, Symbol;}.cls-2,.cls-3,.cls-4{font-size:14px;}.cls-5,.cls-6,.cls-7{stroke:#231f20;}.cls-5,.cls-6,.cls-7,.cls-8,.cls-9,.cls-10{stroke-miterlimit:10;}.cls-5,.cls-6,.cls-8,.cls-10{stroke-width:.75px;}.cls-5,.cls-11{fill:#939598;}.cls-12{fill:#ed1c24;}.cls-3{font-family:TimesNewRomanPSMT, 'Times New Roman';}.cls-13{fill:#00aeef;}.cls-6,.cls-8,.cls-10{fill:none;}.cls-4{font-family:TimesNewRomanPS-ItalicMT, 'Times New Roman';font-style:italic;}.cls-7,.cls-9{fill:#fff;}.cls-8{stroke:#ed1c24;}.cls-9{stroke:#6d6e71;}.cls-10{stroke:#00aeef;}</style></defs><g id="Layer_1-2"><polyline class="cls-7" points="3.95 139.18 186.27 139.18 21.24 44.5"/><line class="cls-9" x1=".44" y1="81.27" x2="42.05" y2="7.73"/><circle class="cls-5" cx="65.72" cy="65.84" r="3.85"/><line class="cls-6" x1="64.51" y1="67.72" x2="64.51" y2="110.66"/><polygon class="cls-1" points="64.51 115.96 61.46 108.49 64.51 110.27 67.55 108.49 64.51 115.96"/><text class="cls-4" transform="translate(7.92 46.34)"><tspan x="0" y="0">O</tspan></text><text class="cls-3" transform="translate(28.17 11.64)"><tspan x="0" y="0">y</tspan></text><text class="cls-3" transform="translate(117.41 114.08)"><tspan x="0" y="0">x</tspan></text><text class="cls-3" transform="translate(74.63 64.02)"><tspan x="0" y="0">m</tspan></text><text class="cls-3" transform="translate(51.51 96.9)"><tspan x="0" y="0">F</tspan></text><text class="cls-3" transform="translate(59.3 101.56) scale(.58)"><tspan x="0" y="0">g</tspan></text><line class="cls-11" x1="61.24" y1="66.84" x2="87.97" y2="82.27"/><line class="cls-10" x1="61.24" y1="66.84" x2="83.39" y2="79.62"/><polygon class="cls-13" points="87.98 82.27 79.99 81.18 83.05 79.42 83.04 75.9 87.98 82.27"/><text class="cls-3" transform="translate(90.97 79.66)"><tspan x="0" y="0">v</tspan></text><text class="cls-2" transform="translate(152.8 136.03)"><tspan x="0" y="0">q</tspan></text><text class="cls-3" transform="translate(77.61 34.01)"><tspan x="0" y="0">F</tspan></text><text class="cls-3" transform="translate(85.4 38.67) scale(.58)"><tspan x="0" y="0">n</tspan></text><line class="cls-11" x1="21.24" y1="44.49" x2="62.71" y2="68.29"/><line class="cls-8" x1="21.24" y1="44.49" x2="58.11" y2="65.65"/><polygon class="cls-12" points="62.71 68.29 54.72 67.22 57.77 65.45 57.75 61.93 62.71 68.29"/><text class="cls-3" transform="translate(44.47 52.6)"><tspan x="0" y="0">r</tspan></text><line class="cls-11" x1="63.71" y1="68.94" x2="81.79" y2="38.27"/><line class="cls-6" x1="63.71" y1="68.94" x2="79.1" y2="42.83"/><polygon class="cls-1" points="81.79 38.27 80.63 46.24 78.9 43.17 75.37 43.15 81.79 38.27"/></g></svg>