<?xml version="1.0" encoding="UTF-8"?><svg id="Layer_2" xmlns="http://www.w3.org/2000/svg" viewBox="0 0 228.54 49.93"><defs><style>.cls-1{stroke-width:.75px;}.cls-1,.cls-2,.cls-3,.cls-4,.cls-5{stroke-miterlimit:10;}.cls-1,.cls-3{fill:#ed1c24;}.cls-1,.cls-3,.cls-4{stroke:#231f20;}.cls-2{stroke:#00a651;}.cls-2,.cls-3,.cls-5{stroke-width:2px;}.cls-2,.cls-5{fill:none;}.cls-6{fill:#00a651;}.cls-7{fill:#231f20;font-family:TimesNewRomanPSMT, 'Times New Roman';font-size:16px;}.cls-8{fill:#00aeef;}.cls-4{fill:#fff;}.cls-5{stroke:#00aeef;}</style></defs><g id="Layer_1-2"><line class="cls-4" y1="25.03" x2="224.54" y2="25.03"/><circle class="cls-1" cx="102.05" cy="25.03" r="5.67"/><line class="cls-5" x1="107.72" y1="25.03" x2="143.3" y2="25.03"/><polygon class="cls-8" points="157.42 25.03 137.52 33.16 142.24 25.03 137.52 16.9 157.42 25.03"/><line class="cls-2" x1="96.37" y1="25.03" x2="46.38" y2="25.03"/><polygon class="cls-6" points="32.26 25.03 52.16 16.9 47.44 25.03 52.16 33.16 32.26 25.03"/><line class="cls-3" x1="11.04" y1="19.81" x2="11.04" y2="30.24"/><line class="cls-3" x1="198.75" y1="19.81" x2="198.75" y2="30.24"/><text class="cls-7" transform="translate(90.15 13.3)"><tspan x="0" y="0">m</tspan></text><text class="cls-7" transform="translate(220.54 40.73)"><tspan x="0" y="0">x</tspan></text><text class="cls-7" transform="translate(146.62 13.3)"><tspan x="0" y="0">v</tspan></text><text class="cls-7" transform="translate(55.42 39.82)"><tspan x="0" y="0">F</tspan></text><text class="cls-7" transform="translate(0 45.02)"><tspan x="0" y="0">x=0</tspan></text><text class="cls-7" transform="translate(195.55 13.3)"><tspan x="0" y="0">x</tspan></text><text class="cls-7" transform="translate(203.55 18.63) scale(.58)"><tspan x="0" y="0">max</tspan></text></g></svg>