<?xml version="1.0" encoding="UTF-8"?><svg id="Layer_2" xmlns="http://www.w3.org/2000/svg" viewBox="0 0 290 76.38"><defs><style>.cls-1,.cls-2,.cls-3,.cls-4,.cls-5{stroke-miterlimit:10;}.cls-1,.cls-3,.cls-5{fill:none;}.cls-1,.cls-4{stroke:#ed1c24;}.cls-2{fill:#fff200;stroke:#fff200;}.cls-6{font-size:11px;}.cls-6,.cls-7{fill:#231f20;font-family:TimesNewRomanPSMT, 'Times New Roman';}.cls-7{font-size:14px;}.cls-3{stroke:#939598;stroke-width:.5px;}.cls-4{fill:#ed1c24;}.cls-5{stroke:#2e3192;}.cls-8{letter-spacing:-.07em;}.cls-9{letter-spacing:-.06em;}</style></defs><g id="Layer_1-2"><ellipse class="cls-1" cx="141.53" cy="39.62" rx="97.43" ry="23.67"/><circle class="cls-5" cx="235.46" cy="39.84" r="6.61"/><line class="cls-3" x1="235.86" y1="7.96" x2="235.86" y2="73"/><line class="cls-3" x1="36.38" y1="39.84" x2="251.77" y2="39.84"/><text class="cls-7" transform="translate(227.28 11.63)"><tspan x="0" y="0">y</tspan></text><text class="cls-7" transform="translate(245.4 47.95)"><tspan x="0" y="0">x</tspan></text><circle class="cls-2" cx="235.86" cy="39.84" r="1.24"/><text class="cls-6" transform="translate(49.71 73)"><tspan x="0" y="0">orbit Halley</tspan><tspan class="cls-9" x="52.85" y="0">’</tspan><tspan x="55.9" y="0">s comet</tspan></text><circle class="cls-4" cx="222.3" cy="26.5" r="1.24"/><line class="cls-4" x1="223.43" y1="27.74" x2="218.76" y2="23.27"/><line class="cls-4" x1="221.71" y1="25.27" x2="219.99" y2="22.46"/><line class="cls-4" x1="221.17" y1="25.99" x2="217.9" y2="24.31"/><text class="cls-6" transform="translate(178.98 38.6)"><tspan x="0" y="0">earth</tspan><tspan class="cls-8" x="21.98" y="0">’</tspan><tspan x="24.83" y="0" xml:space="preserve"> orbit</tspan></text><text class="cls-6" transform="translate(0 39.62)"><tspan x="0" y="0">aphelion</tspan></text><text class="cls-6" transform="translate(245.4 36.33)"><tspan x="0" y="0">perihelion</tspan></text></g></svg>