<?xml version="1.0" encoding="UTF-8"?><svg id="Layer_2" xmlns="http://www.w3.org/2000/svg" viewBox="0 0 199.51 105.82"><defs><style>.cls-1{stroke:#00a651;}.cls-1,.cls-2{fill:none;}.cls-1,.cls-2,.cls-3,.cls-4,.cls-5{stroke-miterlimit:10;}.cls-2,.cls-3,.cls-5{stroke:#231f20;}.cls-3{fill:#ed1c24;stroke-width:.75px;}.cls-4{stroke:#00aeef;}.cls-4,.cls-6{fill:#00aeef;}.cls-7{fill:#00a651;}.cls-8,.cls-9,.cls-10{fill:#231f20;}.cls-9,.cls-6,.cls-10{font-family:TimesNewRomanPSMT, 'Times New Roman';font-size:16px;}.cls-10{letter-spacing:-.04em;}.cls-5{fill:#808285;}</style></defs><g id="Layer_1-2"><line class="cls-5" x1=".98" y1="59.58" x2="198.53" y2="59.58"/><line class="cls-5" x1="89.63" y1="86.89" x2="99.76" y2="59.58"/><line class="cls-5" x1="109.88" y1="86.89" x2="99.76" y2="59.58"/><rect class="cls-3" x=".98" y="48.13" width="6.17" height="11.45"/><rect class="cls-3" x="192.36" y="37.18" width="6.17" height="21.91"/><text class="cls-9" transform="translate(10.92 49.88)"><tspan x="0" y="0">m</tspan></text><text class="cls-9" transform="translate(169.45 50.79)"><tspan x="0" y="0">2m</tspan></text><text class="cls-10" transform="translate(51.43 77.43)"><tspan x="0" y="0">L</tspan></text><text class="cls-10" transform="translate(142.46 77.43)"><tspan x="0" y="0">L</tspan></text><line class="cls-2" x1="4.07" y1="60.08" x2="4.07" y2="75.45"/><polygon class="cls-8" points="4.07 82.51 0 72.56 4.07 74.92 8.13 72.56 4.07 82.51"/><line class="cls-2" x1="195.45" y1="60.08" x2="195.45" y2="97.88"/><polygon class="cls-8" points="195.45 104.94 191.38 94.99 195.45 97.35 199.51 94.99 195.45 104.94"/><text class="cls-9" transform="translate(7.15 86.89)"><tspan x="0" y="0">-mg</tspan></text><text class="cls-9" transform="translate(153.02 100.92)"><tspan x="0" y="0">-2mg</tspan></text><line class="cls-4" x1="99.76" y1="22.45" x2="99.76" y2="94.61"/><line class="cls-4" x1="81.7" y1="75.49" x2="127.94" y2="35.09"/><text class="cls-6" transform="translate(125.28 69.7)"><tspan x="0" y="0">x</tspan></text><text class="cls-6" transform="translate(89.63 29.41)"><tspan x="0" y="0">z</tspan></text><text class="cls-6" transform="translate(125.28 48.13)"><tspan x="0" y="0">y</tspan></text><line class="cls-1" x1="99.76" y1="59.09" x2="188.39" y2="59.09"/><polygon class="cls-7" points="195.45 59.09 185.5 63.15 187.86 59.09 185.5 55.02 195.45 59.09"/><line class="cls-1" x1="10.64" y1="59.58" x2="99.27" y2="59.58"/><polygon class="cls-7" points="3.58 59.58 13.53 63.65 11.17 59.58 13.53 55.52 3.58 59.58"/><line class="cls-2" x1="99.27" y1="58.1" x2="99.27" y2="7.06"/><polygon class="cls-8" points="99.27 0 103.34 9.95 99.27 7.59 95.21 9.95 99.27 0"/><text class="cls-9" transform="translate(107.8 16.44)"><tspan x="0" y="0">F</tspan></text><text class="cls-9" transform="translate(116.69 21.77) scale(.58)"><tspan x="0" y="0">p</tspan></text></g></svg>