<?xml version="1.0" encoding="UTF-8"?><svg id="Layer_2" xmlns="http://www.w3.org/2000/svg" viewBox="0 0 188.14 140.21"><defs><style>.cls-1,.cls-2,.cls-3,.cls-4{fill:#231f20;}.cls-2{font-family:Symbol, Symbol;}.cls-2,.cls-3,.cls-4{font-size:14px;}.cls-5,.cls-6,.cls-7{stroke:#231f20;}.cls-5,.cls-6,.cls-7,.cls-8,.cls-9{stroke-miterlimit:10;}.cls-5,.cls-6,.cls-9{stroke-width:.75px;}.cls-5,.cls-10{fill:#939598;}.cls-3{font-family:TimesNewRomanPSMT, 'Times New Roman';}.cls-11{fill:#00aeef;}.cls-6,.cls-9{fill:none;}.cls-4{font-family:TimesNewRomanPS-ItalicMT, 'Times New Roman';font-style:italic;}.cls-7,.cls-8{fill:#fff;}.cls-8{stroke:#6d6e71;}.cls-9{stroke:#00aeef;}</style></defs><g id="Layer_1-2"><polyline class="cls-7" points="3.95 139.18 186.27 139.18 21.24 44.5"/><line class="cls-8" x1=".44" y1="81.27" x2="42.05" y2="7.73"/><circle class="cls-5" cx="65.72" cy="65.84" r="3.85"/><line class="cls-6" x1="65.72" y1="65.84" x2="65.72" y2="108.78"/><polygon class="cls-1" points="65.72 114.08 62.67 106.61 65.72 108.39 68.76 106.61 65.72 114.08"/><text class="cls-4" transform="translate(7.92 46.34)"><tspan x="0" y="0">O</tspan></text><text class="cls-3" transform="translate(28.17 11.64)"><tspan x="0" y="0">y</tspan></text><text class="cls-3" transform="translate(117.41 114.08)"><tspan x="0" y="0">x</tspan></text><text class="cls-3" transform="translate(74.63 64.02)"><tspan x="0" y="0">m</tspan></text><text class="cls-3" transform="translate(51.51 96.9)"><tspan x="0" y="0">F</tspan></text><text class="cls-3" transform="translate(59.3 101.56) scale(.58)"><tspan x="0" y="0">g</tspan></text><line class="cls-10" x1="64.24" y1="65.84" x2="90.97" y2="81.27"/><line class="cls-9" x1="64.24" y1="65.84" x2="86.39" y2="78.62"/><polygon class="cls-11" points="90.98 81.27 82.99 80.18 86.05 78.42 86.04 74.9 90.98 81.27"/><text class="cls-3" transform="translate(90.97 79.66)"><tspan x="0" y="0">v</tspan></text><text class="cls-2" transform="translate(152.8 136.03)"><tspan x="0" y="0">q</tspan></text></g></svg>