<?xml version="1.0" encoding="UTF-8"?><svg id="Layer_2" xmlns="http://www.w3.org/2000/svg" viewBox="0 0 162.19 120.64"><defs><style>.cls-1{fill:#00aeef;stroke:#00aeef;}.cls-1,.cls-2,.cls-3,.cls-4{stroke-miterlimit:10;}.cls-2{stroke:#ed1c24;}.cls-2,.cls-3{fill:none;}.cls-5,.cls-6{font-family:TimesNewRomanPSMT, 'Times New Roman';font-size:11px;}.cls-5,.cls-4{fill:#231f20;}.cls-3{stroke:#939598;stroke-width:.75px;}.cls-6{fill:#ed1c24;}.cls-7{fill:#939598;}.cls-4{stroke:#231f20;}</style></defs><g id="Layer_1-2"><line class="cls-4" x1="0" y1="65.45" x2="156.83" y2="64.33"/><line class="cls-4" x1="126.14" y1="9.14" x2="126.14" y2="120.64"/><path class="cls-2" d="M146.7,64.33c.11-.74.18-1.77,0-2.99-.21-1.42-.66-2.46-1.07-3.4-.65-1.46-1.33-2.49-1.9-3.33-1.25-1.86-2.46-3.21-3.14-3.92-.3-.32-1.24-1.3-2.64-2.48-.69-.59-1.26-1.03-2.97-2.29-2.41-1.77-3.61-2.65-4.13-3-2.05-1.4-3.11-1.85-8.34-4.57-4.99-2.6-4.14-2.24-6.19-3.27-1.21-.6-3.91-1.92-10.73-4.77-1.75-.73-6.66-2.78-11.23-4.51-7.57-2.87-14.58-5.01-26.67-8.49-8.08-2.33-17.92-5.1-29.23-8.17"/><path class="cls-2" d="M146.7,64.33c.11.74.18,1.77,0,2.99-.21,1.42-.66,2.46-1.07,3.4-.65,1.46-1.33,2.49-1.9,3.33-1.25,1.86-2.46,3.21-3.14,3.92-.3.32-1.24,1.3-2.64,2.48-.69.59-1.26,1.03-2.97,2.29-2.41,1.77-3.61,2.65-4.13,3-2.05,1.4-3.11,1.85-8.34,4.57-4.99,2.6-4.14,2.24-6.19,3.27-1.21.6-3.91,1.92-10.73,4.77-1.75.73-6.66,2.78-11.23,4.51-7.57,2.87-14.58,5.01-26.67,8.49-8.08,2.33-17.92,5.1-29.23,8.17"/><circle class="cls-1" cx="146.81" cy="64.33" r="1.69"/><line class="cls-3" x1="146.81" y1="64.33" x2="146.81" y2="87.42"/><polygon class="cls-7" points="146.81 91.92 144.22 85.58 146.81 87.08 149.4 85.58 146.81 91.92"/><line class="cls-3" x1="126.14" y1="64.33" x2="142.31" y2="64.33"/><polygon class="cls-7" points="146.81 64.33 140.47 66.92 141.97 64.33 140.47 61.74 146.81 64.33"/><text class="cls-5" transform="translate(129.61 59.97)"><tspan x="0" y="0">r</tspan></text><text class="cls-5" transform="translate(133.27 63.63) scale(.58)"><tspan x="0" y="0">0</tspan></text><text class="cls-5" transform="translate(148.5 87.05)"><tspan x="0" y="0">v</tspan></text><text class="cls-5" transform="translate(154 90.71) scale(.58)"><tspan x="0" y="0">esc</tspan></text><text class="cls-6" transform="translate(51.75 9.14)"><tspan x="0" y="0">parabola</tspan></text><text class="cls-5" transform="translate(117.14 14.55)"><tspan x="0" y="0">y</tspan></text><text class="cls-5" transform="translate(153.31 72.68)"><tspan x="0" y="0">x</tspan></text></g></svg>