<?xml version="1.0" encoding="UTF-8"?><svg id="Layer_2" xmlns="http://www.w3.org/2000/svg" viewBox="0 0 209.28 198.21"><defs><style>.cls-1{stroke:#00a651;}.cls-1,.cls-2,.cls-3,.cls-4,.cls-5,.cls-6,.cls-7{stroke-miterlimit:10;}.cls-1,.cls-2,.cls-3,.cls-4,.cls-7{fill:none;}.cls-1,.cls-3,.cls-4,.cls-5,.cls-7{stroke-width:2px;}.cls-8{fill:#00a651;}.cls-9,.cls-10{fill:#231f20;}.cls-11{fill:#ed1c24;}.cls-10{font-family:TimesNewRomanPSMT, 'Times New Roman';font-size:24px;}.cls-12{fill:#00aeef;}.cls-2{stroke-width:.75px;}.cls-2,.cls-3,.cls-5,.cls-6{stroke:#231f20;}.cls-4{stroke:#ed1c24;}.cls-5,.cls-6{fill:#808285;}.cls-7{stroke:#00aeef;}</style></defs><g id="Layer_1-2"><circle class="cls-3" cx="98.77" cy="99.44" r="83.02"/><circle class="cls-5" cx="173.27" cy="61.61" r="4.91"/><line class="cls-6" y1="99.44" x2="197.55" y2="99.44"/><line class="cls-6" x1="98.77" y1="198.21" x2="98.77" y2=".66"/><line class="cls-11" x1="98.77" y1="99.44" x2="173.27" y2="61.61"/><line class="cls-4" x1="98.77" y1="99.44" x2="162.7" y2="66.98"/><polygon class="cls-11" points="173.27 61.61 161.46 75.27 161.91 67.39 155.28 63.09 173.27 61.61"/><line class="cls-12" x1="173.03" y1="60.81" x2="149.14" y2="13.77"/><line class="cls-7" x1="173.03" y1="60.81" x2="154.58" y2="24.47"/><polygon class="cls-12" points="149.14 13.77 162.96 25.72 154.98 25.27 150.64 31.98 149.14 13.77"/><line class="cls-8" x1="173.27" y1="61.61" x2="205.39" y2="5.61"/><line class="cls-1" x1="173.27" y1="61.61" x2="199.42" y2="16.02"/><polygon class="cls-8" points="205.39 5.61 202.97 23.72 198.97 16.8 190.98 16.84 205.39 5.61"/><text class="cls-10" transform="translate(145.1 88.93) scale(.58)"><tspan x="0" y="0">r</tspan></text><line class="cls-2" x1="145.1" y1="80.11" x2="148.13" y2="80.11"/><polygon class="cls-9" points="151.04 80.11 146.94 81.79 147.91 80.11 146.94 78.44 151.04 80.11"/><text class="cls-10" transform="translate(155.62 16.78) scale(.58)"><tspan x="0" y="0">v</tspan></text><line class="cls-2" x1="156.62" y1="7.96" x2="159.66" y2="7.96"/><polygon class="cls-9" points="162.57 7.96 158.46 9.64 159.44 7.96 158.46 6.28 162.57 7.96"/><text class="cls-10" transform="translate(201.5 41.79) scale(.58)"><tspan x="0" y="0">F</tspan></text><line class="cls-2" x1="202.41" y1="30.34" x2="205.45" y2="30.34"/><polygon class="cls-9" points="208.36 30.34 204.26 32.01 205.23 30.34 204.26 28.66 208.36 30.34"/><text class="cls-10" transform="translate(183.89 68.33) scale(.58)"><tspan x="0" y="0">m</tspan></text><text class="cls-10" transform="translate(186.66 113.85) scale(.58)"><tspan x="0" y="0">R</tspan></text><text class="cls-10" transform="translate(86.03 11.63) scale(.58)"><tspan x="0" y="0">R</tspan></text></g></svg>